<?xml version="1.0" encoding="UTF-8" standalone="no"?>
<!-- Created with Inkscape (http://www.inkscape.org/) -->

<svg
   xmlns:dc="http://purl.org/dc/elements/1.1/"
   xmlns:cc="http://creativecommons.org/ns#"
   xmlns:rdf="http://www.w3.org/1999/02/22-rdf-syntax-ns#"
   xmlns:svg="http://www.w3.org/2000/svg"
   xmlns="http://www.w3.org/2000/svg"
   xmlns:sodipodi="http://sodipodi.sourceforge.net/DTD/sodipodi-0.dtd"
   xmlns:inkscape="http://www.inkscape.org/namespaces/inkscape"
   version="1.1"
   id="svg1323"
   xml:space="preserve"
   width="1000"
   height="231.70786"
   viewBox="0 0 1000 231.70786"
   sodipodi:docname="Aquafina logo.svg"
   inkscape:version="0.92.2 (5c3e80d, 2017-08-06)"><metadata
     id="metadata1329"><rdf:RDF><cc:Work
         rdf:about=""><dc:format>image/svg+xml</dc:format><dc:type
           rdf:resource="http://purl.org/dc/dcmitype/StillImage" /><dc:title></dc:title></cc:Work></rdf:RDF></metadata><defs
     id="defs1327"><clipPath
       clipPathUnits="userSpaceOnUse"
       id="clipPath1343"><path
         d="M 0,0 H 535.5 V 702 H 0 Z"
         id="path1341"
         inkscape:connector-curvature="0" /></clipPath><clipPath
       clipPathUnits="userSpaceOnUse"
       id="clipPath1355"><path
         d="M 0,468.114 V 702 Z"
         id="path1353"
         inkscape:connector-curvature="0" /></clipPath><clipPath
       clipPathUnits="userSpaceOnUse"
       id="clipPath1367"><path
         d="M 13.925,468.115 H 261.76 V 702 H 13.925 Z"
         id="path1365"
         inkscape:connector-curvature="0" /></clipPath><clipPath
       clipPathUnits="userSpaceOnUse"
       id="clipPath1379"><path
         d="M 230.08,175.915 H 435.751 V 306.348 H 230.08 Z"
         id="path1377"
         inkscape:connector-curvature="0" /></clipPath><clipPath
       clipPathUnits="userSpaceOnUse"
       id="clipPath1391"><path
         d="M 163.055,318.523 H 435.75 V 455.94 H 163.055 Z"
         id="path1389"
         inkscape:connector-curvature="0" /></clipPath><clipPath
       clipPathUnits="userSpaceOnUse"
       id="clipPath1403"><path
         d="M 230.08,0 H 435.751 V 163.741 H 230.08 Z"
         id="path1401"
         inkscape:connector-curvature="0" /></clipPath><clipPath
       clipPathUnits="userSpaceOnUse"
       id="clipPath1415"><path
         d="M 273.935,468.115 H 435.751 V 702 H 273.935 Z"
         id="path1413"
         inkscape:connector-curvature="0" /></clipPath><clipPath
       clipPathUnits="userSpaceOnUse"
       id="clipPath1427"><path
         d="M 13.36,0 H 217.906 V 306.348 H 13.36 Z"
         id="path1425"
         inkscape:connector-curvature="0" /></clipPath><clipPath
       clipPathUnits="userSpaceOnUse"
       id="clipPath1439"><path
         d="M 0,0 V 306.347 Z"
         id="path1437"
         inkscape:connector-curvature="0" /></clipPath><clipPath
       clipPathUnits="userSpaceOnUse"
       id="clipPath1451"><path
         d="m 482.893,626.134 h 19.389 v 27 h -19.389 z"
         id="path1449"
         inkscape:connector-curvature="0" /></clipPath><clipPath
       clipPathUnits="userSpaceOnUse"
       id="clipPath1531"><path
         d="m 483.83,626.134 h 18.452 v 25.731 H 483.83 Z"
         id="path1529"
         inkscape:connector-curvature="0" /></clipPath><clipPath
       clipPathUnits="userSpaceOnUse"
       id="clipPath1551"><path
         d="m 482.893,626.134 h 19.389 v 27 h -19.389 z"
         id="path1549"
         inkscape:connector-curvature="0" /></clipPath><clipPath
       clipPathUnits="userSpaceOnUse"
       id="clipPath1661"><path
         d="m 477.621,381.6 h 29.786 v 20.472 h -29.786 z"
         id="path1659"
         inkscape:connector-curvature="0" /></clipPath><clipPath
       clipPathUnits="userSpaceOnUse"
       id="clipPath1745"><path
         d="m 477.621,381.6 h 29.786 v 20.472 h -29.786 z"
         id="path1743"
         inkscape:connector-curvature="0" /></clipPath><clipPath
       clipPathUnits="userSpaceOnUse"
       id="clipPath1761"><path
         d="m 477.621,381.6 h 29.786 v 20.472 h -29.786 z"
         id="path1759"
         inkscape:connector-curvature="0" /></clipPath><clipPath
       clipPathUnits="userSpaceOnUse"
       id="clipPath1877"><path
         d="m 482.776,597.103 h 19.623 v 18.389 h -19.623 z"
         id="path1875"
         inkscape:connector-curvature="0" /></clipPath><clipPath
       clipPathUnits="userSpaceOnUse"
       id="clipPath1905"><path
         d="m 484.25,428.546 h 16.676 v 18.049 H 484.25 Z"
         id="path1903"
         inkscape:connector-curvature="0" /></clipPath><clipPath
       clipPathUnits="userSpaceOnUse"
       id="clipPath1925"><path
         d="m 482.75,426.136 h 18.176 V 448.2 H 482.75 Z"
         id="path1923"
         inkscape:connector-curvature="0" /></clipPath><clipPath
       clipPathUnits="userSpaceOnUse"
       id="clipPath1941"><path
         d="m 484.25,428.546 h 16.676 v 18.049 H 484.25 Z"
         id="path1939"
         inkscape:connector-curvature="0" /></clipPath><clipPath
       clipPathUnits="userSpaceOnUse"
       id="clipPath1957"><path
         d="m 482.75,426.136 h 18.176 V 448.2 H 482.75 Z"
         id="path1955"
         inkscape:connector-curvature="0" /></clipPath><clipPath
       clipPathUnits="userSpaceOnUse"
       id="clipPath1981"><path
         d="m 478.462,274.284 h 27.011 v 13.613 h -27.011 z"
         id="path1979"
         inkscape:connector-curvature="0" /></clipPath><clipPath
       clipPathUnits="userSpaceOnUse"
       id="clipPath2009"><path
         d="m 478.462,274.284 h 27.011 v 13.613 h -27.011 z"
         id="path2007"
         inkscape:connector-curvature="0" /></clipPath><clipPath
       clipPathUnits="userSpaceOnUse"
       id="clipPath2121"><path
         d="m 484.869,512.857 h 15.438 v 16.401 h -15.438 z"
         id="path2119"
         inkscape:connector-curvature="0" /></clipPath><clipPath
       clipPathUnits="userSpaceOnUse"
       id="clipPath2207"><path
         d="m 475.043,490.514 h 33.247 v 13.613 h -33.247 z"
         id="path2205"
         inkscape:connector-curvature="0" /></clipPath><clipPath
       clipPathUnits="userSpaceOnUse"
       id="clipPath2243"><path
         d="m 477.621,493.609 h 29.933 v 8.606 h -29.933 z"
         id="path2241"
         inkscape:connector-curvature="0" /></clipPath><clipPath
       clipPathUnits="userSpaceOnUse"
       id="clipPath2259"><path
         d="m 475.043,490.514 h 33.247 v 13.613 h -33.247 z"
         id="path2257"
         inkscape:connector-curvature="0" /></clipPath><clipPath
       clipPathUnits="userSpaceOnUse"
       id="clipPath2275"><path
         d="m 474,409.846 h 39.166 v 10.517 H 474 Z"
         id="path2273"
         inkscape:connector-curvature="0" /></clipPath><clipPath
       clipPathUnits="userSpaceOnUse"
       id="clipPath2327"><path
         d="m 478.605,356.305 h 29.686 v 15.128 h -29.686 z"
         id="path2325"
         inkscape:connector-curvature="0" /></clipPath><clipPath
       clipPathUnits="userSpaceOnUse"
       id="clipPath2411"><path
         d="m 478.605,356.305 h 29.686 v 15.128 h -29.686 z"
         id="path2409"
         inkscape:connector-curvature="0" /></clipPath><clipPath
       clipPathUnits="userSpaceOnUse"
       id="clipPath2539"><path
         d="m 478.648,326.766 h 27.879 v 18.897 h -27.879 z"
         id="path2537"
         inkscape:connector-curvature="0" /></clipPath><clipPath
       clipPathUnits="userSpaceOnUse"
       id="clipPath2567"><path
         d="m 479.875,172.982 h 28.416 v 20 h -28.416 z"
         id="path2565"
         inkscape:connector-curvature="0" /></clipPath><clipPath
       clipPathUnits="userSpaceOnUse"
       id="clipPath2583"><path
         d="m 479.875,172.982 h 24.57 v 16.569 h -24.57 z"
         id="path2581"
         inkscape:connector-curvature="0" /></clipPath><clipPath
       clipPathUnits="userSpaceOnUse"
       id="clipPath2595"><path
         d="m 479.875,172.982 h 28.416 v 20 h -28.416 z"
         id="path2593"
         inkscape:connector-curvature="0" /></clipPath><clipPath
       clipPathUnits="userSpaceOnUse"
       id="clipPath2627"><path
         d="m 484.042,140.276 h 17.092 v 22.064 h -17.092 z"
         id="path2625"
         inkscape:connector-curvature="0" /></clipPath><clipPath
       clipPathUnits="userSpaceOnUse"
       id="clipPath2643"><path
         d="m 481.706,140.12 h 21.763 v 23.62 h -21.763 z"
         id="path2641"
         inkscape:connector-curvature="0" /></clipPath><clipPath
       clipPathUnits="userSpaceOnUse"
       id="clipPath2707"><path
         d="m 481.706,140.12 h 21.763 v 23.62 h -21.763 z"
         id="path2705"
         inkscape:connector-curvature="0" /></clipPath><clipPath
       clipPathUnits="userSpaceOnUse"
       id="clipPath2759"><path
         d="m 474.859,82.87 h 33.431 v 25.592 h -33.431 z"
         id="path2757"
         inkscape:connector-curvature="0" /></clipPath><clipPath
       clipPathUnits="userSpaceOnUse"
       id="clipPath2787"><path
         d="m 479.729,86.397 h 25.717 v 18.982 h -25.717 z"
         id="path2785"
         inkscape:connector-curvature="0" /></clipPath><clipPath
       clipPathUnits="userSpaceOnUse"
       id="clipPath2803"><path
         d="m 474.859,82.87 h 33.431 v 25.592 h -33.431 z"
         id="path2801"
         inkscape:connector-curvature="0" /></clipPath><clipPath
       clipPathUnits="userSpaceOnUse"
       id="clipPath2831"><path
         d="m 479.309,46.424 h 26.556 v 11.85 h -26.556 z"
         id="path2829"
         inkscape:connector-curvature="0" /></clipPath><clipPath
       clipPathUnits="userSpaceOnUse"
       id="clipPath2843"><path
         d="M 477.621,42.921 H 508.29 V 60.97 h -30.669 z"
         id="path2841"
         inkscape:connector-curvature="0" /></clipPath><clipPath
       clipPathUnits="userSpaceOnUse"
       id="clipPath2867"><path
         d="m 479.309,46.424 h 26.556 v 11.85 h -26.556 z"
         id="path2865"
         inkscape:connector-curvature="0" /></clipPath><clipPath
       clipPathUnits="userSpaceOnUse"
       id="clipPath2883"><path
         d="M 477.621,42.921 H 508.29 V 60.97 h -30.669 z"
         id="path2881"
         inkscape:connector-curvature="0" /></clipPath><clipPath
       clipPathUnits="userSpaceOnUse"
       id="clipPath2895"><path
         d="m 482.75,297.206 h 19.968 v 18.918 H 482.75 Z"
         id="path2893"
         inkscape:connector-curvature="0" /></clipPath><clipPath
       clipPathUnits="userSpaceOnUse"
       id="clipPath2903"><path
         d="m 503.998,316.124 h 18.917 v -18.918 h -18.917 z"
         id="path2901"
         inkscape:connector-curvature="0" /></clipPath><clipPath
       clipPathUnits="userSpaceOnUse"
       id="clipPath2907"><path
         d="m 505.175,314.997 h 16.663 v -16.388 h -16.663 z"
         id="path2905"
         inkscape:connector-curvature="0" /></clipPath><mask
       maskUnits="userSpaceOnUse"
       x="0"
       y="0"
       width="1"
       height="1"
       id="mask2909"><g
         id="g2947"><g
           clip-path="url(#clipPath2903)"
           id="g2945"><path
             d="m 503.998,316.124 h 18.917 v -18.917 h -18.917 z"
             style="fill:#000000;fill-opacity:1;fill-rule:nonzero;stroke:none"
             id="path2911"
             inkscape:connector-curvature="0" /><g
             id="g2943"><g
               id="g2913" /><g
               id="g2941"><g
                 clip-path="url(#clipPath2907)"
                 id="g2939"><g
                   transform="translate(513.3495,314.9973)"
                   id="g2917"><path
                     d="m 0,0 c 3.016,0 5.65,-1.652 7.062,-4.108 -1.448,2.073 -3.839,3.428 -6.544,3.428 -3.167,0 -5.904,-1.86 -7.2,-4.556 -0.289,-0.023 -0.6,-0.04 -0.936,-0.049 C -6.443,-2.194 -3.475,0 0,0"
                     style="fill:#ffffff;fill-opacity:1;fill-rule:nonzero;stroke:none"
                     id="path2915"
                     inkscape:connector-curvature="0" /></g><g
                   transform="translate(505.7094,303.8819)"
                   id="g2921"><path
                     d="M 0,0 C 0.179,-0.004 0.35,-0.011 0.515,-0.02 1.045,-1.755 2.138,-3.24 3.58,-4.257 1.945,-3.309 0.669,-1.804 0,0"
                     style="fill:#ffffff;fill-opacity:1;fill-rule:nonzero;stroke:none"
                     id="path2919"
                     inkscape:connector-curvature="0" /></g><g
                   transform="translate(514.4135,298.6089)"
                   id="g2925"><path
                     d="m 0,0 c -0.436,0 -0.794,0.005 -1.211,0.079 0.057,-0.003 0.113,-0.003 0.168,-0.003 3.141,0 6.185,2.259 7.551,5.184 0.17,0.007 0.348,0.013 0.533,0.016 C 6.032,2.316 3.069,0 0,0"
                     style="fill:#ffffff;fill-opacity:1;fill-rule:nonzero;stroke:none"
                     id="path2923"
                     inkscape:connector-curvature="0" /></g><g
                   transform="translate(516.3,307.4487)"
                   id="g2929"><path
                     d="m 0,0 c -0.356,0 -0.646,-0.377 -0.646,-0.84 0,-0.465 0.29,-0.842 0.646,-0.842 0.356,0 0.645,0.377 0.645,0.842 C 0.645,-0.377 0.356,0 0,0"
                     style="fill:#ffffff;fill-opacity:1;fill-rule:nonzero;stroke:none"
                     id="path2927"
                     inkscape:connector-curvature="0" /></g><g
                   transform="translate(511.5817,307.4487)"
                   id="g2933"><path
                     d="m 0,0 c -0.56,0 -0.566,-0.446 -0.566,-0.451 v -1.068 l 0.011,-0.009 c 0.15,-0.137 0.306,-0.158 0.396,-0.158 0.195,0 0.384,0.095 0.515,0.253 0.137,0.165 0.213,0.376 0.213,0.593 C 0.569,-0.314 0.356,0 0,0"
                     style="fill:#ffffff;fill-opacity:1;fill-rule:nonzero;stroke:none"
                     id="path2931"
                     inkscape:connector-curvature="0" /></g><g
                   transform="translate(520.3333,305.3339)"
                   id="g2937"><path
                     d="m 0,0 -0.815,0.001 v 0.31 C -0.816,0.318 -0.817,0.323 -0.817,0.33 v 1.296 c 0,0.307 -0.08,0.426 -0.284,0.426 -0.286,0 -0.592,-0.307 -0.592,-0.766 V 0.222 C -1.68,0.099 -1.635,0.044 -1.599,0.02 -1.574,0.002 -1.602,0.001 -1.602,0.001 h -0.817 v 1.406 0 0.811 c 0,0.008 0,0.018 0,0.026 L -2.42,2.243 c 0,0.178 -0.057,0.25 -0.1,0.279 -0.025,0.018 0.005,0.02 0.005,0.02 h 0.772 V 2.208 l 0.057,0.061 c 0.146,0.157 0.399,0.342 0.78,0.342 0.266,0 0.471,-0.077 0.608,-0.23 C -0.16,2.227 -0.09,1.996 -0.09,1.696 V 0.218 C -0.076,0.098 -0.031,0.044 0.004,0.019 0.028,0.002 0,0 0,0 m -4.033,-0.064 c -0.738,0 -1.338,0.6 -1.338,1.338 0,0.738 0.6,1.337 1.338,1.337 0.737,0 1.337,-0.599 1.337,-1.337 0,-0.738 -0.6,-1.338 -1.337,-1.338 m -2.133,-0.005 c -0.496,0 -0.817,0.357 -0.817,0.909 v 1.212 h -0.278 l 0.006,0.484 h 0.272 V 2.97 l 0.727,0.291 V 2.542 h 0.685 c 0,0 0.008,-0.49 -0.447,-0.49 H -6.256 V 0.89 c 0,-0.276 0.05,-0.447 0.299,-0.447 0.21,0 0.383,0.13 0.452,0.191 0.02,0.018 0.033,0.015 0.032,-0.011 -0.004,-0.157 -0.065,-0.692 -0.693,-0.692 m -1.569,0.425 c -0.148,-0.194 -0.413,-0.425 -0.839,-0.425 -0.289,0 -0.513,0.091 -0.686,0.277 l -0.057,0.061 10e-4,-0.996 c 0.009,-0.145 0.058,-0.207 0.097,-0.233 0.025,-0.017 0.006,-0.021 -0.004,-0.02 -0.547,0.065 -0.82,0.174 -0.82,0.174 0,0.005 -0.002,3.024 -0.002,3.024 v 0.025 c 0,0.178 -0.056,0.25 -0.098,0.279 -0.025,0.018 0.004,0.02 0.004,0.02 h 0.771 V 2.224 l 0.057,0.059 c 0.203,0.209 0.476,0.328 0.748,0.328 0.317,0 0.605,-0.137 0.811,-0.387 0.202,-0.246 0.314,-0.586 0.314,-0.957 0,-0.332 -0.109,-0.664 -0.297,-0.911 m -3.142,2.419 c -0.205,0 -0.373,0.168 -0.373,0.374 0,0.206 0.168,0.374 0.373,0.374 0.206,0 0.374,-0.168 0.374,-0.374 0,-0.206 -0.168,-0.374 -0.374,-0.374 m 0.371,-2.773 -0.823,-0.001 c 0,0 -0.029,0.001 -0.004,0.019 0.042,0.029 0.099,0.1 0.099,0.279 l 10e-4,-0.001 c 0,0.01 0,0.022 0,0.032 v 1.916 c -10e-4,0.176 -0.057,0.248 -0.099,0.276 -0.025,0.018 0.004,0.02 0.004,0.02 h 0.095 0.727 z m -1.012,0.325 c 0,-0.21 -0.1,-0.326 -0.283,-0.326 h -1.852 c 0,0 -0.029,0.001 -0.004,0.019 0.042,0.028 0.098,0.1 0.098,0.276 V 0.33 2.952 c 0,0.178 -0.056,0.251 -0.098,0.279 -0.025,0.018 0.004,0.02 0.004,0.02 h 0.231 V 3.25 h 0.692 V 0.615 h 0.712 c 0.084,0 0.16,0.001 0.227,0.002 0.16,0.004 0.226,0.057 0.253,0.098 0.018,0.025 0.019,-0.005 0.019,-0.005 V 0.618 h 10e-4 z m 4.691,4.929 c -3.621,0 -4.062,-1.2 -8.331,-1.2 V -1.13 c 4.269,0 4.71,-1.2 8.331,-1.2 3.621,0 4.063,1.2 8.332,1.2 v 5.186 c -4.269,0 -4.711,1.2 -8.332,1.2"
                     style="fill:#ffffff;fill-opacity:1;fill-rule:nonzero;stroke:none"
                     id="path2935"
                     inkscape:connector-curvature="0" /></g></g></g></g></g></g></mask><clipPath
       clipPathUnits="userSpaceOnUse"
       id="clipPath2955"><path
         d="m 503.998,316.124 h 18.917 v -18.918 h -18.917 z"
         id="path2953"
         inkscape:connector-curvature="0" /></clipPath><clipPath
       clipPathUnits="userSpaceOnUse"
       id="clipPath2959"><path
         d="m 503.998,297.206 h 18.917 v 18.917 h -18.917 z"
         id="path2957"
         inkscape:connector-curvature="0" /></clipPath><clipPath
       clipPathUnits="userSpaceOnUse"
       id="clipPath2979"><path
         d="m 482.75,316.124 h 18.918 V 297.206 H 482.75 Z"
         id="path2977"
         inkscape:connector-curvature="0" /></clipPath><clipPath
       clipPathUnits="userSpaceOnUse"
       id="clipPath2983"><path
         d="m 483.928,314.997 h 16.663 v -16.388 h -16.663 z"
         id="path2981"
         inkscape:connector-curvature="0" /></clipPath><mask
       maskUnits="userSpaceOnUse"
       x="0"
       y="0"
       width="1"
       height="1"
       id="mask2985"><g
         id="g3023"><g
           clip-path="url(#clipPath2979)"
           id="g3021"><path
             d="m 482.75,316.124 h 18.917 V 297.207 H 482.75 Z"
             style="fill:#000000;fill-opacity:1;fill-rule:nonzero;stroke:none"
             id="path2987"
             inkscape:connector-curvature="0" /><g
             id="g3019"><g
               id="g2989" /><g
               id="g3017"><g
                 clip-path="url(#clipPath2983)"
                 id="g3015"><g
                   transform="translate(492.1024,314.9973)"
                   id="g2993"><path
                     d="m 0,0 c 3.016,0 5.65,-1.652 7.062,-4.108 -1.448,2.073 -3.839,3.428 -6.544,3.428 -3.167,0 -5.904,-1.86 -7.2,-4.556 -0.289,-0.023 -0.599,-0.04 -0.936,-0.049 C -6.443,-2.194 -3.475,0 0,0"
                     style="fill:#ffffff;fill-opacity:1;fill-rule:nonzero;stroke:none"
                     id="path2991"
                     inkscape:connector-curvature="0" /></g><g
                   transform="translate(484.4623,303.8819)"
                   id="g2997"><path
                     d="M 0,0 C 0.179,-0.004 0.35,-0.011 0.515,-0.02 1.045,-1.755 2.138,-3.24 3.58,-4.257 1.945,-3.309 0.669,-1.804 0,0"
                     style="fill:#ffffff;fill-opacity:1;fill-rule:nonzero;stroke:none"
                     id="path2995"
                     inkscape:connector-curvature="0" /></g><g
                   transform="translate(493.1665,298.6089)"
                   id="g3001"><path
                     d="m 0,0 c -0.436,0 -0.794,0.005 -1.211,0.079 0.057,-0.003 0.113,-0.003 0.168,-0.003 3.141,0 6.185,2.259 7.551,5.184 C 6.678,5.267 6.855,5.273 7.04,5.276 6.032,2.316 3.069,0 0,0"
                     style="fill:#ffffff;fill-opacity:1;fill-rule:nonzero;stroke:none"
                     id="path2999"
                     inkscape:connector-curvature="0" /></g><g
                   transform="translate(495.053,307.4487)"
                   id="g3005"><path
                     d="m 0,0 c -0.356,0 -0.646,-0.377 -0.646,-0.84 0,-0.465 0.29,-0.842 0.646,-0.842 0.356,0 0.645,0.377 0.645,0.842 C 0.645,-0.377 0.356,0 0,0"
                     style="fill:#ffffff;fill-opacity:1;fill-rule:nonzero;stroke:none"
                     id="path3003"
                     inkscape:connector-curvature="0" /></g><g
                   transform="translate(490.3346,307.4487)"
                   id="g3009"><path
                     d="m 0,0 c -0.56,0 -0.566,-0.446 -0.566,-0.451 v -1.068 l 0.011,-0.009 c 0.15,-0.137 0.306,-0.158 0.396,-0.158 0.195,0 0.384,0.095 0.515,0.253 0.137,0.165 0.213,0.376 0.213,0.593 C 0.569,-0.314 0.356,0 0,0"
                     style="fill:#ffffff;fill-opacity:1;fill-rule:nonzero;stroke:none"
                     id="path3007"
                     inkscape:connector-curvature="0" /></g><g
                   transform="translate(499.0862,305.3339)"
                   id="g3013"><path
                     d="m 0,0 -0.815,0.001 v 0.31 C -0.816,0.318 -0.817,0.323 -0.817,0.33 v 1.296 c 0,0.307 -0.08,0.426 -0.284,0.426 -0.286,0 -0.592,-0.307 -0.592,-0.766 V 0.222 C -1.68,0.099 -1.635,0.044 -1.599,0.02 -1.574,0.002 -1.602,0.001 -1.602,0.001 h -0.817 v 1.406 0 0.811 c 0,0.008 0,0.018 0,0.026 L -2.42,2.243 c 0,0.178 -0.057,0.25 -0.1,0.279 -0.025,0.018 0.005,0.02 0.005,0.02 h 0.772 V 2.208 l 0.057,0.061 c 0.146,0.157 0.399,0.342 0.78,0.342 0.266,0 0.471,-0.077 0.608,-0.23 C -0.16,2.227 -0.09,1.996 -0.09,1.696 V 0.218 C -0.076,0.098 -0.031,0.044 0.004,0.019 0.028,0.002 0,0 0,0 m -4.033,-0.064 c -0.738,0 -1.338,0.6 -1.338,1.338 0,0.738 0.6,1.337 1.338,1.337 0.737,0 1.337,-0.599 1.337,-1.337 0,-0.738 -0.6,-1.338 -1.337,-1.338 m -2.133,-0.005 c -0.496,0 -0.817,0.357 -0.817,0.909 v 1.212 h -0.278 l 0.006,0.484 h 0.272 V 2.97 l 0.727,0.291 V 2.542 h 0.685 c 0,0 0.008,-0.49 -0.447,-0.49 H -6.256 V 0.89 c 0,-0.276 0.05,-0.447 0.299,-0.447 0.21,0 0.383,0.13 0.452,0.191 0.02,0.018 0.033,0.015 0.032,-0.011 -0.004,-0.157 -0.065,-0.692 -0.693,-0.692 m -1.569,0.425 c -0.148,-0.194 -0.413,-0.425 -0.838,-0.425 -0.29,0 -0.514,0.091 -0.687,0.277 l -0.057,0.061 10e-4,-0.996 c 0.009,-0.145 0.058,-0.207 0.097,-0.233 0.025,-0.017 0.006,-0.021 -0.004,-0.02 -0.546,0.065 -0.82,0.174 -0.82,0.174 0,0.005 -0.002,3.024 -0.002,3.024 v 0.025 c 0,0.178 -0.056,0.25 -0.098,0.279 -0.025,0.018 0.004,0.02 0.004,0.02 h 0.771 V 2.224 l 0.057,0.059 c 0.203,0.209 0.476,0.328 0.748,0.328 0.317,0 0.605,-0.137 0.811,-0.387 0.202,-0.246 0.314,-0.586 0.314,-0.957 0,-0.332 -0.109,-0.664 -0.297,-0.911 m -3.142,2.419 c -0.205,0 -0.373,0.168 -0.373,0.374 0,0.206 0.168,0.374 0.373,0.374 0.206,0 0.374,-0.168 0.374,-0.374 0,-0.206 -0.168,-0.374 -0.374,-0.374 m 0.371,-2.773 -0.823,-0.001 c 0,0 -0.029,0.001 -0.004,0.019 0.042,0.029 0.099,0.1 0.099,0.279 l 10e-4,-0.001 c 0,0.01 0,0.022 0,0.032 v 1.916 c -10e-4,0.176 -0.057,0.248 -0.099,0.276 -0.025,0.018 0.004,0.02 0.004,0.02 h 0.095 0.727 z m -1.012,0.325 c 0,-0.21 -0.1,-0.326 -0.283,-0.326 h -1.852 c 0,0 -0.029,0.001 -0.004,0.019 0.042,0.028 0.098,0.1 0.099,0.276 V 0.33 2.952 c 0,0.178 -0.057,0.251 -0.099,0.279 -0.025,0.018 0.004,0.02 0.004,0.02 h 0.231 V 3.25 h 0.692 V 0.615 h 0.712 c 0.084,0 0.16,0.001 0.227,0.002 0.16,0.004 0.226,0.057 0.253,0.098 0.018,0.025 0.02,-0.005 0.02,-0.005 v -0.092 0 z m 4.691,4.929 c -3.621,0 -4.062,-1.2 -8.331,-1.2 V -1.13 c 4.269,0 4.71,-1.2 8.331,-1.2 3.621,0 4.063,1.2 8.332,1.2 v 5.186 c -4.269,0 -4.711,1.2 -8.332,1.2"
                     style="fill:#ffffff;fill-opacity:1;fill-rule:nonzero;stroke:none"
                     id="path3011"
                     inkscape:connector-curvature="0" /></g></g></g></g></g></g></mask><clipPath
       clipPathUnits="userSpaceOnUse"
       id="clipPath3031"><path
         d="m 482.75,316.124 h 18.918 V 297.206 H 482.75 Z"
         id="path3029"
         inkscape:connector-curvature="0" /></clipPath><clipPath
       clipPathUnits="userSpaceOnUse"
       id="clipPath3035"><path
         d="m 482.75,297.206 h 18.917 v 18.917 H 482.75 Z"
         id="path3033"
         inkscape:connector-curvature="0" /></clipPath><clipPath
       clipPathUnits="userSpaceOnUse"
       id="clipPath3055"><path
         d="m 478.462,257.759 h 28.25 v 7.646 h -28.25 z"
         id="path3053"
         inkscape:connector-curvature="0" /></clipPath><clipPath
       clipPathUnits="userSpaceOnUse"
       id="clipPath3071"><path
         d="m 477.621,256.32 h 30.669 v 10.518 h -30.669 z"
         id="path3069"
         inkscape:connector-curvature="0" /></clipPath><clipPath
       clipPathUnits="userSpaceOnUse"
       id="clipPath3147"><path
         d="m 480.692,569.317 h 23.792 v 17.117 h -23.792 z"
         id="path3145"
         inkscape:connector-curvature="0" /></clipPath><clipPath
       clipPathUnits="userSpaceOnUse"
       id="clipPath3159"><path
         d="m 478.766,568.384 h 27.802 v 20 h -27.802 z"
         id="path3157"
         inkscape:connector-curvature="0" /></clipPath><clipPath
       clipPathUnits="userSpaceOnUse"
       id="clipPath3195"><path
         d="m 481.946,539.965 h 21.282 v 18.71 h -21.282 z"
         id="path3193"
         inkscape:connector-curvature="0" /></clipPath><clipPath
       clipPathUnits="userSpaceOnUse"
       id="clipPath3323"><path
         d="m 481.706,116.021 h 21.763 v 13.613 h -21.763 z"
         id="path3321"
         inkscape:connector-curvature="0" /></clipPath><clipPath
       clipPathUnits="userSpaceOnUse"
       id="clipPath3363"><path
         d="m 491.214,246.985 -3.251,-3.045 c -0.11,-0.095 -0.176,-0.226 -0.186,-0.371 v 0 c -0.011,-0.145 0.036,-0.285 0.13,-0.394 v 0 c 0.104,-0.119 0.253,-0.188 0.411,-0.188 v 0 l 8.141,0.002 c 0.145,0.01 0.276,0.076 0.371,0.185 v 0 c 0.095,0.109 0.142,0.249 0.132,0.393 v 0 c -0.01,0.145 -0.077,0.277 -0.185,0.372 v 0 l -1.854,1.841 c -0.192,0.167 -0.48,0.178 -0.683,0.024 v 0 l -0.437,-0.329 c -0.055,-0.041 -0.131,-0.039 -0.182,0.007 v 0 l -1.693,1.5 c -0.102,0.09 -0.231,0.135 -0.36,0.135 v 0 c -0.127,0 -0.253,-0.044 -0.354,-0.132"
         id="path3361"
         inkscape:connector-curvature="0" /></clipPath><clipPath
       clipPathUnits="userSpaceOnUse"
       id="clipPath3371"><path
         d="M -1974.78,2684.73 H 2931.7 v -4906.48 h -4906.48 z"
         id="path3369"
         inkscape:connector-curvature="0" /></clipPath><linearGradient
       x1="0"
       y1="0"
       x2="1"
       y2="0"
       gradientUnits="userSpaceOnUse"
       gradientTransform="matrix(0,3.277262,3.277262,0,492.36919,243.74766)"
       spreadMethod="pad"
       id="linearGradient3383"><stop
         style="stop-opacity:0;stop-color:#ffffff"
         offset="0"
         id="stop3377" /><stop
         style="stop-opacity:1;stop-color:#ffffff"
         offset="0.5391882"
         id="stop3379" /><stop
         style="stop-opacity:1;stop-color:#ffffff"
         offset="1"
         id="stop3381" /></linearGradient><mask
       maskUnits="userSpaceOnUse"
       x="0"
       y="0"
       width="1"
       height="1"
       id="mask3385"><g
         id="g3399"><g
           clip-path="url(#clipPath3371)"
           id="g3397"><g
             id="g3395"><g
               id="g3393"><g
                 id="g3391"><g
                   id="g3389"><path
                     d="m 487.766,247.117 h 9.206 v -4.13 h -9.206 z"
                     style="fill:url(#linearGradient3383);stroke:none"
                     id="path3387"
                     inkscape:connector-curvature="0" /></g></g></g></g></g></g></mask><linearGradient
       x1="0"
       y1="0"
       x2="1"
       y2="0"
       gradientUnits="userSpaceOnUse"
       gradientTransform="matrix(0,3.277262,3.277262,0,492.36919,243.74766)"
       spreadMethod="pad"
       id="linearGradient3411"><stop
         style="stop-opacity:1;stop-color:#ffffff"
         offset="0"
         id="stop3405" /><stop
         style="stop-opacity:1;stop-color:#ffffff"
         offset="0.5391882"
         id="stop3407" /><stop
         style="stop-opacity:1;stop-color:#ffffff"
         offset="1"
         id="stop3409" /></linearGradient><clipPath
       clipPathUnits="userSpaceOnUse"
       id="clipPath3421"><path
         d="m 479.701,236.566 h 25.772 v 10.552 h -25.772 z"
         id="path3419"
         inkscape:connector-curvature="0" /></clipPath><clipPath
       clipPathUnits="userSpaceOnUse"
       id="clipPath3441"><path
         d="m 482.893,457.237 h 19.389 v 27.683 h -19.389 z"
         id="path3439"
         inkscape:connector-curvature="0" /></clipPath><clipPath
       clipPathUnits="userSpaceOnUse"
       id="clipPath3521"><path
         d="m 482.893,457.237 h 19.389 v 25.731 h -19.389 z"
         id="path3519"
         inkscape:connector-curvature="0" /></clipPath><clipPath
       clipPathUnits="userSpaceOnUse"
       id="clipPath3541"><path
         d="m 482.893,457.237 h 19.389 v 27.683 h -19.389 z"
         id="path3539"
         inkscape:connector-curvature="0" /></clipPath><clipPath
       clipPathUnits="userSpaceOnUse"
       id="clipPath3651"><path
         d="m 482.893,200.193 h 19.389 v 28.047 h -19.389 z"
         id="path3649"
         inkscape:connector-curvature="0" /></clipPath><clipPath
       clipPathUnits="userSpaceOnUse"
       id="clipPath3731"><path
         d="m 482.893,200.193 h 18.576 v 25.73 h -18.576 z"
         id="path3729"
         inkscape:connector-curvature="0" /></clipPath><clipPath
       clipPathUnits="userSpaceOnUse"
       id="clipPath3751"><path
         d="m 482.893,200.193 h 19.389 v 28.047 h -19.389 z"
         id="path3749"
         inkscape:connector-curvature="0" /></clipPath><clipPath
       clipPathUnits="userSpaceOnUse"
       id="clipPath3861"><path
         d="m 474.859,62.87 h 36.117 v 20 h -36.117 z"
         id="path3859"
         inkscape:connector-curvature="0" /></clipPath></defs><sodipodi:namedview
     pagecolor="#ffffff"
     bordercolor="#666666"
     borderopacity="1"
     objecttolerance="10"
     gridtolerance="10"
     guidetolerance="10"
     inkscape:pageopacity="0"
     inkscape:pageshadow="2"
     inkscape:window-width="1366"
     inkscape:window-height="705"
     id="namedview1325"
     showgrid="false"
     fit-margin-top="0"
     fit-margin-left="0"
     fit-margin-right="0"
     fit-margin-bottom="0"
     inkscape:zoom="0.80984879"
     inkscape:cx="494.47473"
     inkscape:cy="225.31186"
     inkscape:window-x="-8"
     inkscape:window-y="-8"
     inkscape:window-maximized="1"
     inkscape:current-layer="g1331" /><g
     id="g1331"
     inkscape:groupmode="layer"
     inkscape:label="pepsico-inc-2020-annual-report"
     transform="matrix(1.3333333,0,0,-1.3333333,201.37757,534.38203)"><path
       inkscape:connector-curvature="0"
       id="path3429"
       style="fill:#0047ba;fill-opacity:1;fill-rule:nonzero;stroke:none;stroke-width:1"
       d="M 349.2801,396.02908 H 283.61606 V 268.73124 c 4.45437,-0.0592 16.69632,-0.51487 21.51429,-0.69712 v 52.66453 h 42.27101 v 19.48406 h -42.27101 v 36.63523 h 44.14975 z m 117.93459,0 v -93.63257 l -43.30128,93.63257 H 402.67189 V 262.51933 c 6.36334,-0.51487 15.45388,-1.27266 20.81732,-1.75746 v 93.54167 l 45.78602,-98.17785 c 3.7877,-0.42449 11.84806,-1.42423 18.54469,-2.27263 v 142.17602 z m -82.84509,0 V 263.8829 c -5.54524,0.39412 -16.72661,1.18184 -20.84769,1.36364 V 396.02908 Z M 4.6879066,381.27217 c -23.7566306,0 -35.1198046,-24.9384 -35.1198046,-53.30059 0,-2.51504 0.151868,-5.84854 0.272624,-7.66638 2.151436,0.72749 10.817705,3.3332 21.3324176,3.3332 25.2717674,0 39.5741764,-11.51468 45.6042174,-17.09022 1.303044,5.33314 2.575705,10.09051 2.575705,21.4234 0,28.36249 -12.12075,53.30089 -34.6653049,53.30089 M 28.86866,288.12469 c -4.605949,4.48467 -17.15089,16.12056 -36.7258481,16.12056 -5.5149409,0 -11.6964809,-0.90907 -18.5446819,-3.24231 4.302873,-13.57522 14.575178,-26.24137 30.9684312,-26.24137 13.1813178,0 20.1204268,8.09058 24.3020988,13.36312 m 97.29907,-61.11877 c -42.543709,0 -62.027843,19.63556 -82.845161,45.21033 -8.726868,-9.69662 -21.786986,-16.93873 -38.7560078,-16.93873 -36.4227802,0 -57.2097982,32.57418 -57.2097982,72.69406 0,40.11957 20.120426,72.81495 57.2097982,72.81495 36.4227718,0 56.9976978,-32.69568 56.9976978,-72.81495 0,-22.15067 -5.787641,-34.81682 -7.484509,-38.63482 15.908454,-17.99928 33.331968,-42.81678 68.78508,-42.81678 15.12058,0 24.81719,3.1211 29.12006,4.48467 l 5.48457,-17.84771 c -4.81797,-1.93934 -15.02968,-6.15131 -31.30173,-6.15131 m 22.12029,169.02345 v -86.93586 c 0,-12.51465 -6.54513,-25.39289 -24.999,-25.39289 -16.21144,0 -24.99899,12.87854 -24.99899,25.39289 v 86.93586 H 75.927344 v -88.23883 c 0,-24.8475 19.84765,-43.75578 47.361676,-43.75578 28.81707,0 47.36176,18.90828 47.36176,43.75578 l -0.0296,88.23883 z m 90.17824,-73.42124 -14.42368,48.81622 -14.39339,-48.81622 z m 38.02874,-53.6948 c -4.30287,0.0911 -17.63569,0.36375 -22.27186,0.42449 l -10.33291,34.87742 h -39.72568 l -10.21171,-34.84712 c -4.81798,-0.0592 -19.42346,-0.36374 -21.24152,-0.39411 l 38.66511,127.05544 h 26.45346 z m 285.86726,29.39277 -15.78729,67.84571 -15.30235,-56.75493 c 9.87835,-2.90901 23.33234,-7.60578 31.08964,-11.09078 m 13.63583,-58.30066 -8.0906,34.36223 c -9.42392,4.78768 -29.69574,12.33285 -41.81651,15.99936 l -10.6965,-40.05898 c -4.72715,0.69711 -18.51447,2.57563 -20.48403,2.81803 l 39.51351,142.90329 h 26.27169 c 0,0 38.11965,-160.2662 38.27119,-160.87228 -6.60584,1.48484 -17.81752,3.87868 -22.96875,4.84835 m -660.609726,69.02747 -15.666054,56.9977 -16.09025,-68.51238 c 6.8179,3.2726 22.332457,8.87844 31.756304,11.51468 m 5.211864,-18.99926 c -10.757107,-2.96953 -34.241038,-11.90857 -42.574018,-16.42354 -0.96966,-4.12108 -8.06027,-34.15015 -8.06027,-34.15015 -3.8483,-0.72749 -15.99935,-3.1514 -20.99912,-4.30287 l 38.27114,160.87228 h 26.059566 c 0.302993,0.0296 39.695378,-143.14569 39.695378,-143.14569 -3.393804,-0.45487 -15.059985,-1.99994 -21.362795,-2.96961 0,0 -11.393481,40.02868 -11.029881,40.11958" /></g></svg>