<?xml version="1.0" encoding="UTF-8"?><svg id="Layer_2" xmlns="http://www.w3.org/2000/svg" viewBox="0 0 766.4095 119.054"><g id="Components"><path id="_9bee0ac2-19ce-41a3-b8dc-e9c7d1411f60_4" d="M440.8148,94.8749h32.3193v23.7373c-31.9644,1.3003-69.4907,2.4836-71.7588-39.4419.0376-18.8077-.0273-58.4253,0-76.8049h23.7373c-.0024,17.8987.002,58.4944,0,76.807,0,8.5812,7.1211,15.7025,15.7021,15.7025ZM178.9759,16.1359C178.9759,8.0399,168.8919.0001,160.0985.0001,145.6048.0001,141.7284,7.9257,134.9447,15.099c0,0-60.0439,74.4053-60.0444,74.405-5.3682,6.0505-10.5795,5.4656-15.5625,5.4583-19.6465-.0292-35.6543-16.0095-35.6533-35.6544-1.1396-32.8512,43.9834-48.2356,63.3672-22.431l15.0806-18.688C67.8162-19.9803-1.7721,7.0632.0345,59.3063.0345,91.9886,26.493,118.5052,59.1517,118.6075v.0046c16.8043,0,25.4565-4.8912,37.9434-21.2849l58.5884-69.6753v67.3103h-42.9043v23.6499h66.1968c-.0269-12.4663.0451-89.1703,0-102.4763ZM675.097,94.9623h-7.0161c-3.4561,0-6.5493-2.3649-7.6401-5.4574l-25.4692-74.4054c-2.729-8.7322-10.915-15.0995-20.7383-15.0995s-18.0107,6.3673-20.7397,15.0995l-35.8379,103.5127h68.6787v-23.6499h-35.3872l23.2861-67.3103,24.0127,69.6755c4.3662,12.3704,16.1914,21.2847,30.0171,21.2847h15.7461v-.0737h14.7373V2.3512h-23.6494v92.6111ZM764.4051,2.3656h-29.1523c-41.981,61.9583-41.9146,55.0806,1.2759,116.2468h29.8809c-46.6777-72.5627-48.9219-42.3738-2.0044-116.2468ZM324.1644,118.6122h70.2109v-23.6868h-46.5249v-22.5933h35.5264v-23.6868h-35.5264v-22.5937h46.5249V2.3654h-70.2109v116.2468ZM277.8568,2.3512l-26.7798,89.2651L224.2977,2.3512h-37.7065v116.261h23.5103V36.5101l20.6221,67.4348c2.6748,8.563,10.7148,14.8145,20.3535,14.8145s17.6787-6.2515,20.3535-14.8145l21.3359-69.7678v84.4351h23.5103V2.3512h-38.4199ZM526.4591,118.6016h-46.2671V2.3653s41.8955,0,41.8945.0007c28.3081,0,45.2095,33.8937,28.0532,55.7384,23.4429,19.8362,6.8301,60.4972-23.6807,60.4972ZM503.8712,48.6352h17.3516c14.7515-.1157,14.7534-22.4698,0-22.5869h-17.3516v22.5869ZM526.4591,72.3127h-22.5879v22.5869h22.5879c14.752-.1157,14.7539-22.4698,0-22.5869Z"/></g></svg>