<svg class="fill-[#4c4d4e] h-[30px]" version="1.1" xmlns="http://www.w3.org/2000/svg" x="0px" y="0px" viewBox="0 0 3622.2 913"><title>Logo</title><path d="M1314,624.2l-104.1-362h-134l-103.2,363l-89.4-363H704.5l170,629.6h146.1L1139,541.7l124.7,350.1h144.8&#10;    &#9;&#9;&#9;l170-629.6h-178.8L1314,624.2z M344,245C162.7,245,15.8,392,15.8,573.3s147,328.2,328.2,328.2s328.2-147,328.2-328.2&#10;    &#9;&#9;&#9;S525.3,245,344,245z M344,732.3c-87.7,0-159-71.3-159-159s71.3-159,159-159s159,71.3,159,159S431.7,732.3,344,732.3z&#10;    &#9;&#9;&#9;M3322.5,563.3l-0.1-2.8c-4.2-174.9-147.2-315.5-323.2-315.5c-178.6,0-323.4,144.8-323.4,323.4c0,178,143.9,322.5,321.7,323.4&#10;    &#9;&#9;&#9;h324.9V573.6C3322.5,571.9,3322.5,565,3322.5,563.3z M2999.3,725.1c-86.4,0-156.7-70.3-156.7-156.7s70.3-156.7,156.7-156.7&#10;    &#9;&#9;&#9;S3156,482,3156,568.4C3155.9,654.8,3085.7,725.1,2999.3,725.1z M2395.3,891.8h172.9V11.9h-172.9V891.8z M2259.9,560.5&#10;    &#9;&#9;&#9;c-4.2-174.9-147.2-315.5-323.2-315.5c-178.6,0-323.4,144.8-323.4,323.4c0,178,143.9,322.5,321.7,323.4h324.9V573.6&#10;    &#9;&#9;&#9;c0-1.7,0-8.6,0-10.4V560.5z M1936.7,725.1c-86.4,0-156.7-70.3-156.7-156.7s70.3-156.7,156.7-156.7&#10;    &#9;&#9;&#9;c86.4,0,156.7,70.3,156.7,156.7S2023.1,725.1,1936.7,725.1z"/><path d="M3604.3,810.2c0,48.7-36.3,85-85,85c-48.7,0-85-36.3-85-85c0-48.7,36.3-85,85-85&#10;    &#9;&#9;&#9;C3568,725,3604.3,761.4,3604.3,810.2z M3586.9,810.2c0-40.1-29.1-69.1-67.6-69.1c-38.8,0-67.9,29.2-67.9,69.1&#10;    &#9;&#9;&#9;c0,40.1,29.1,69.1,67.9,69.1C3557.8,879.3,3586.9,850.2,3586.9,810.2z M3538.2,821.3l21.9,32.3h-21.4l-18.4-30.9h-16.2v30.9h-18.2&#10;    &#9;&#9;&#9;v-87.1h38.8c21.7,0,32.6,9.6,32.6,28.2C3557.3,809.1,3550.8,817.8,3538.2,821.3z M3524,807.4c9.9,0,14.9-4,14.9-12.1&#10;    &#9;&#9;&#9;c0-8.3-5-12.4-14.9-12.4h-19.9v24.7h19.9V807.4z"/></svg>